<?xml version="1.0"?><svg version="1.2" baseProfile="tiny-ps" viewBox="0 0 300 300" xmlns="http://www.w3.org/2000/svg" xmlns:xlink="http://www.w3.org/1999/xlink"><title>logo</title><g><g fill="#d2d2d2" transform="matrix(.1 0 0 -.1 0 300)"><path d="M0 1500V0h3000v3000H0V1500z"/></g><g fill="#999b9a" transform="matrix(.1 0 0 -.1 0 300)"><path d="M0 1500V0h3000v3000H0V1500zm1359 513-10-27 11-68 12-67-7-21-6-20h-14c-7 0-16 8-19 17l-7 17-9-14-10-15v26l-10-6-10-6v21h-31l7 13 7 12-14-12c-18-18-27-16-34 6l-6 20 15 35 15 36 62 40c34 22 64 40 65 40 2 0-1-12-7-27zm521-81c0-5-7-9-15-9h-14l5 9c3 4 9 8 15 8 5 0 9-4 9-8zm-175-86-39-34-9 5-9 5 44 29c57 38 62 37 13-5zm-645-81-12-14 5-48c2-26 8-57 11-69l8-21-17-17c-9-9-13-16-8-16 4-1-4-8-19-16-16-8-28-18-28-23 0-11 36-21 77-21h32l14-15 15-15 4 10 3 10 29-15 29-15 12 10 13 11 6-16 6-16-39-42c-47-52-61-78-61-115v-29l25-47 24-46h-8c-5 0-11 7-15 15l-6 15-27-6c-15-4-34-13-41-21l-14-13-2-33c-2-17-4-35-5-39-3-17-20-6-45 30l-26 38v80l14 20c8 11 46 47 85 79l71 59-8 7c-4 4-49 24-99 44l-93 37-26 31-26 31 4 53 5 54 20 27c23 31 92 81 112 82h13l-12-15zm427-517c6-7 18-47 28-88s26-89 36-106l19-32 29-11c15-7 42-13 59-13l31-1-52-33-52-33-43-1c-24 0-62 5-86 11l-42 10-12 20c-7 11-21 60-31 109l-18 89 26 24c31 28 84 66 92 67 4 0 11-6 16-12zm412-9c17-6 31-15 31-20 0-4-20-20-45-34l-44-26-22 3-22 3-4 28-4 29 12 14 11 14h28c15 0 41-5 59-11z"/></g><g fill="#6c6d6d" transform="matrix(.1 0 0 -.1 0 300)"><path d="M0 1500V0h3000v3000H0V1500zm1574 553c26-26 42-60 32-70-3-3-10 5-15 18-12 32-48 69-66 69-8 0-15 4-15 9v9l20-5c11-3 31-16 44-30zm-207-32-11-29 16-101 15-102-8-5c-11-6-151 54-161 69-11 18-10 52 4 82l11 25 70 45c39 25 72 45 73 45s-3-13-9-29zm543-96c16-8 41-30 55-49l26-35 5-44 5-44-17-14-17-14 10 20c13 25 11 61-5 77-6 6-26 13-44 14s-37 2-41 3l-8 1 7 13 8 12-17-13-16-14-21 7c-11 3-20 10-20 14 0 3-9 7-19 7-11 0-18-3-15-7 2-4-8-6-21-6h-25l-40-28c-40-27-57-28-48-3 3 7 45 37 94 66l88 52h23c13 0 37-7 53-15zm-280-31v-15l-10 6-10 6 5 10c9 14 15 11 15-7zm-559-133c-15-28-14-82 3-123l15-34-16-32-16-33 7-6c8-8 91-22 141-23 22 0 47-5 55-10l15-9-46-48c-25-26-49-55-52-64l-5-17 25-37c13-20 27-34 29-32 7 6 54-41 54-53 0-5 15-16 34-24l35-14 23 5c13 4 39 19 58 35 19 15 40 28 47 28h12l15-52c8-29 18-65 22-80 3-16 10-28 16-28h9l-6-10-6-10h21v-34l27-23 27-24 34 6c18 3 41 9 50 14s22 10 27 11c6 1 9 7 7 13l-4 12 8-7 7-8 14 12 13 11-6-17-6-16-85-57-85-56-48-9-49-9-35 15-34 14-18 27-17 26-17 85c-10 47-20 87-23 90-3 4-16-1-29-10-12-9-30-16-40-16h-17l-10 18-10 17-1-12v-13l-22 9c-13 4-42 11-64 14l-42 7-8-38c-4-20-8-40-8-44-1-3-4-10-9-14l-7-8-30 29c-16 15-36 43-45 62l-17 35 6 34 7 33 79 73 80 72-7 7c-5 4-44 22-88 40l-80 32-28 26-27 25-10 34-9 34 17 52 17 51 65 42 65 43 3-10c2-5-1-18-7-29zm865-514 37-13-61-38-62-37-32 3-33 3-3 44-3 44 13 9 13 9 47-6c25-3 63-11 84-18zm-30 601 5-8 10 5c13 9 11 12-6 12h-14l5-9z"/></g><g fill="#4c4d4d" transform="matrix(.1 0 0 -.1 0 300)"><path d="M0 1500V0h3000v3000H0V1500zm1549 577c13-6 32-23 42-37l19-25 15-80c9-44 18-85 20-92l4-12 89 54 89 55h72l36-31c20-18 43-45 52-62l15-30v-67l-15-23c-16-24-149-137-162-137h-7l6 15 5 15h-29l2 12 3 12-20 3-20 3 19-8 20-9-11-6-11-7-9 13c-6 6-14 18-18 26l-8 14 11-7 12-7v9c0 5-11 14-25 20l-24 11 6-16 6-16-16 6-17 6v-17l-24 11-25 12 10 10 10 10 9-15 9-14 6 6 7 7-7 10-6 11h-51l6 16 6 15-10-6c-6-3-10-13-10-21v-15l-24 18c-13 10-22 20-20 22s10-2 19-9l15-12v42h-16c-8 0-24-5-35-10l-19-11v32l10-6 10-6-6 16-6 16-13-11-13-11 5 20 5 20-21 13c-12 7-21 18-21 25 0 16-12 17-29 1l-12-13 6 18 7 17h-24l13 17 14 17-12-7-12-7-6 10-6 10h16l1 35 1 36-11-11c-5-5-14-10-19-10h-9l5 20c3 11 4 20 2 20s-10 3-19 6l-16 6v-20c0-11 3-22 8-25 4-2 2-3-5-1l-11 3-5-20c-3-10-2-19 1-19 4 0 8-37 9-81l3-81-13 5c-6 2-47 19-91 38l-78 33 4 48 5 47 12 15c18 22 158 107 200 122 46 17 90 17 120 1zm-475-314c-18-51-17-76 2-121 10-20 18-52 19-70l2-34 14-9c8-5 31-9 52-10 20-1 42-3 47-4 6-1 24-3 40-4l30-1v-13c0-7-18-31-40-52l-40-39v-34l38-41c21-23 41-41 46-41 4 0 19-11 34-25l27-25 32-6 32-6 34 26c19 14 37 26 40 26s14-25 24-56l17-56 34-33 34-32 29 2 29 3-5-8c-6-9 25-25 40-20 6 1 22 2 37 2l28-1 15 22c18 26 28 18 19-17l-6-26-32-27c-17-16-65-48-105-73l-74-44-58-1h-59l-30 31-31 31-9 39c-4 21-14 65-20 97l-12 58-42-25-42-24-18 10c-11 6-35 14-55 19l-36 8-24-15-23-16 6-29 6-29h-37l-41 44-41 44-7 36-6 36 11 28 12 28 75 64 75 63-8 7c-4 4-50 24-101 45l-93 38-21 30-21 29v42l-1 41 17 37 16 38 62 40c34 22 65 40 69 40h8l-14-37zm808-494c11-6 41-14 67-18l46-7-71-42-70-42h-72l-7 51-7 51 13 9c20 12 76 11 101-2zm-462 751c0-5 5-10 11-10h10l-6 10c-3 6-8 10-11 10-2 0-4-4-4-10z"/></g><g fill="#242525" transform="matrix(.1 0 0 -.1 0 300)"><path d="M0 1500V0h3000v3000H0V1500zm1575 558 35-33 19-88c11-49 22-91 24-94 3-3 43 18 88 46l83 51h67l28-14 27-15 30-42 29-42v-89l-84-78-85-77 45-20c24-11 65-28 91-37l47-18 23-27 23-26-20 16c-21 16-40 23-195 63-52 13-108 30-125 37-33 13-54 20-72 21l-12 1 5 9 5 8-13 1c-7 1-17 1-21 0l-8-1 6 10 6 10-30 6c-17 4-31 10-31 15 0 4-9 11-20 14l-20 6 5 9 5 8-27 10c-16 6-22 11-15 11l13 1-26 24c-15 14-25 29-22 33l5 8-29 1-29 1v-16l-37 13c-21 8-64 26-95 40l-58 26v86l16 22c16 23 94 77 173 119l44 23h97l35-32zm-489-275c-7-16-17-43-21-60l-7-33 36-74c20-41 42-78 49-83 6-4 40-10 75-14s66-9 69-12c3-4-11-25-31-47s-36-47-36-55c0-16 76-95 85-87 3 3 5 1 5-5s17-21 38-35l37-25 29 4c16 2 38 9 48 14l18 10 10-6c6-3 10-12 10-19s13-31 29-54l30-40 38-13c21-7 46-13 55-13l18 1-5-8-5-8 49 3c28 1 54 5 58 10l8 8-3 73-3 72 21 6 20 5 53-19c28-11 70-23 92-27l39-7-69-45-70-44-37 1h-36l5-32 5-32-16-30-15-30-93-58-93-58-49-5-49-5-32 17-31 17-16 27c-9 15-24 66-33 114l-17 86-49-30-50-30-35 17-36 17-24-6-24-6v-50h10c6 0 10-4 10-10v-10h-20c-12 0-34 7-49 15l-29 14-31 47-31 47v29c0 16 6 42 14 57l15 28 70 58c39 31 71 59 71 60 0 2-45 22-100 45l-100 42-20 25c-11 14-22 40-26 58l-6 34 12 38c7 21 20 46 29 57 17 20 131 95 144 96h8l-15-27z"/></g><g fill="#030303" transform="matrix(.1 0 0 -.1 0 300)"><path d="M0 1500V0h3000v3000H0V1500zm1568 572c32-21 47-54 66-146 9-44 18-81 20-83 2-3 37 17 77 43 40 25 85 51 101 56l27 10 36-12 35-11 35-41 35-41 6-34 6-33-6-26c-7-28-29-52-114-124l-54-46 94-38 93-38 23-21 22-21 10-36 10-35-9-30-9-30-1 32-1 32-22 26-23 26-75 4c-145 8-200 14-221 26l-22 11-9-13-10-14 5 15 4 15-33 16c-18 9-31 12-28 8l5-9-15 6-16 6 7 11 6 10-16-6-17-6v20l-10-6-10-6v32l-10-6-10-6v26l-9-13-8-14-7 18c-3 9-9 14-12 11s-17 6-31 21c-13 15-21 21-17 13l7-14-12 7-12 8 6 15 5 16-16-14-16-13 4 19 3 19-38 20-39 20 11 4c6 2 11 9 11 15v10l-6-6-7-6-41 35c-22 19-68 49-101 65-33 17-49 27-36 23l24-6-6 22c-3 13-3 36 0 51l5 29 23 22c13 13 60 45 104 72l82 49 37 7c43 8 78 3 110-18zm-469-276-20-34-1-39-2-38 24-47c13-26 36-59 50-72l27-24 44-7c24-4 55-12 68-17l24-9-21-22c-12-13-24-36-28-53l-6-29 24-28c13-15 29-27 34-27 6 0 24-12 39-27 31-31 27-30 95-32l50-1 26-40 26-39 22-8c11-4 26-8 31-9 6-2 37-10 70-19l60-16 12 17 13 18v116h20c11 0 48-12 83-26l62-26 44-1h45l-23-16c-13-9-50-33-84-53l-61-38h-56v-77l-20-25-19-25-93-57-93-56h-118l-32 34-32 34-18 91c-10 50-20 91-22 91-3 0-42-22-88-50l-83-50h-78l-22 16c-13 9-37 34-53 57l-29 40v90l48 46c26 26 64 61 84 77l38 30-83 33c-104 42-123 55-147 94l-20 32v63l19 44 18 44 84 52c46 28 85 52 86 52s-7-15-18-34zm951-510c0-2-8-10-17-17l-18-14 14 18c13 16 21 21 21 13zm-882-183c7-3 16-2 19 1 4 3-2 6-13 5l-19-1 13-5z"/></g></g></svg>