<svg width="256" height="256" viewBox="0 0 256 256" fill="none" xmlns="http://www.w3.org/2000/svg">
<rect width="256" height="256" fill="#101010"/>
<path d="M198.219 148C194.617 148 191.397 147.218 188.559 145.653C185.758 144.052 183.538 141.742 181.901 138.722C180.3 135.702 179.5 132.1 179.5 127.916C179.5 123.914 180.3 120.403 181.901 117.383C183.538 114.327 185.776 111.98 188.614 110.343C191.452 108.669 194.654 107.832 198.219 107.832C201.785 107.832 204.987 108.669 207.825 110.343C210.699 112.016 212.955 114.381 214.592 117.437C216.266 120.457 217.103 123.95 217.103 127.916C217.103 132.064 216.284 135.666 214.647 138.722C213.009 141.742 210.754 144.052 207.879 145.653C205.041 147.218 201.821 148 198.219 148ZM198.219 141.942C200.475 141.942 202.476 141.396 204.223 140.305C205.969 139.213 207.315 137.612 208.261 135.502C209.244 133.392 209.735 130.863 209.735 127.916C209.735 125.114 209.244 122.658 208.261 120.548C207.315 118.402 205.969 116.764 204.223 115.636C202.476 114.472 200.475 113.89 198.219 113.89C195.964 113.89 193.981 114.454 192.271 115.582C190.561 116.71 189.233 118.347 188.287 120.494C187.341 122.604 186.868 125.078 186.868 127.916C186.868 130.827 187.341 133.337 188.287 135.447C189.233 137.558 190.561 139.177 192.271 140.305C193.981 141.396 195.964 141.942 198.219 141.942Z" fill="#E4E3DF"/>
<path d="M131.141 108.814H142.548L152.262 136.43C152.735 137.849 153.063 139.013 153.245 139.923C153.317 139.704 153.372 139.486 153.408 139.268C153.517 138.831 153.627 138.376 153.736 137.903C153.881 137.43 154.045 136.939 154.227 136.43L163.559 108.814H174.857V147.018H167.98V121.312C167.98 118.765 168.016 116.946 168.089 115.855L157.611 147.018H148.879L137.8 115.855C137.909 117.528 137.963 119.348 137.963 121.312V147.018H131.141V108.814Z" fill="#E4E3DF"/>
<path d="M80.6543 108.814H92.0607L101.775 136.43C102.248 137.849 102.576 139.013 102.758 139.923C102.83 139.704 102.885 139.486 102.921 139.268C103.03 138.831 103.14 138.376 103.249 137.903C103.394 137.43 103.558 136.939 103.74 136.43L113.072 108.814H124.37V147.018H117.493V121.312C117.493 118.765 117.529 116.946 117.602 115.855L107.124 147.018H98.3915L87.3126 115.855C87.4217 117.528 87.4763 119.348 87.4763 121.312V147.018H80.6543V108.814Z" fill="#E4E3DF"/>
<path d="M57.1514 148C53.5494 148 50.3294 147.218 47.4915 145.653C44.6899 144.052 42.4705 141.742 40.8332 138.722C39.2323 135.702 38.4319 132.1 38.4319 127.916C38.4319 123.914 39.2323 120.403 40.8332 117.383C42.4705 114.327 44.7081 111.98 47.5461 110.343C50.384 108.669 53.5858 107.832 57.1514 107.832C60.717 107.832 63.9188 108.669 66.7568 110.343C69.6311 112.016 71.8869 114.381 73.5242 117.437C75.1979 120.457 76.0347 123.95 76.0347 127.916C76.0347 132.064 75.216 135.666 73.5788 138.722C71.9415 141.742 69.6857 144.052 66.8114 145.653C63.9734 147.218 60.7534 148 57.1514 148ZM57.1514 141.942C59.4072 141.942 61.4083 141.396 63.1548 140.305C64.9012 139.213 66.2474 137.612 67.1934 135.502C68.1758 133.392 68.6669 130.863 68.6669 127.916C68.6669 125.114 68.1758 122.658 67.1934 120.548C66.2474 118.402 64.9012 116.764 63.1548 115.636C61.4083 114.472 59.4072 113.89 57.1514 113.89C54.8956 113.89 52.9127 114.454 51.2026 115.582C49.4926 116.71 48.1646 118.347 47.2186 120.494C46.2726 122.604 45.7996 125.078 45.7996 127.916C45.7996 130.827 46.2726 133.337 47.2186 135.447C48.1646 137.558 49.4926 139.177 51.2026 140.305C52.9127 141.396 54.8956 141.942 57.1514 141.942Z" fill="#E4E3DF"/>
</svg>
