<svg width="32" height="32" viewBox="0 0 32 32" fill="none" xmlns="http://www.w3.org/2000/svg">
<rect width="32" height="32" fill="#101010"/>
<path d="M16 11H18.8702L21.3146 18.2286C21.4336 18.6 21.516 18.9048 21.5618 19.1429C21.5801 19.0857 21.5938 19.0286 21.603 18.9714C21.6305 18.8571 21.6579 18.7381 21.6854 18.6143C21.722 18.4905 21.7632 18.3619 21.809 18.2286L24.1573 11H27V21H25.2697V14.2714C25.2697 13.6048 25.2788 13.1286 25.2971 12.8429L22.6604 21H20.4632L17.6754 12.8429C17.7029 13.281 17.7166 13.7571 17.7166 14.2714V21H16V11Z" fill="#E4E3DF"/>
<path d="M9.97823 21C9.02032 21 8.16401 20.8053 7.40929 20.4158C6.66425 20.0172 6.07402 19.442 5.63861 18.6902C5.21287 17.9384 5 17.0417 5 16C5 15.0036 5.21287 14.1295 5.63861 13.3777C6.07402 12.6168 6.66909 12.0326 7.4238 11.625C8.17852 11.2083 9.03 11 9.97823 11C10.9265 11 11.7779 11.2083 12.5327 11.625C13.297 12.0417 13.897 12.6304 14.3324 13.3913C14.7775 14.1431 15 15.0127 15 16C15 17.0326 14.7823 17.9293 14.3469 18.6902C13.9115 19.442 13.3116 20.0172 12.5472 20.4158C11.7925 20.8053 10.9361 21 9.97823 21ZM9.97823 19.4918C10.5781 19.4918 11.1103 19.356 11.5747 19.0842C12.0392 18.8125 12.3972 18.4139 12.6488 17.8886C12.91 17.3632 13.0406 16.7337 13.0406 16C13.0406 15.3025 12.91 14.6911 12.6488 14.1658C12.3972 13.6313 12.0392 13.2237 11.5747 12.9429C11.1103 12.6531 10.5781 12.5082 9.97823 12.5082C9.37833 12.5082 8.85099 12.6486 8.39623 12.9293C7.94146 13.2101 7.58829 13.6178 7.33672 14.1522C7.08515 14.6775 6.95936 15.2935 6.95936 16C6.95936 16.7246 7.08515 17.3496 7.33672 17.875C7.58829 18.4004 7.94146 18.8034 8.39623 19.0842C8.85099 19.356 9.37833 19.4918 9.97823 19.4918Z" fill="#E4E3DF"/>
</svg>
